# xmcd CD database file
#
# Track frame offsets:
#	150
#	6837
#	18916
#	37828
#	54601
#
# Disc length: 1053 seconds
#
# Revision: 0
# Processed by: cddbd v1.5.1PL2 Copyright (c) Steve Scherf et al.
# Submitted via: CDex 1.51
#
DISCID=2f041b05
DTITLE=Shakuson5 - Shakuson5
DYEAR=2004
DGENRE=Rock
TTITLE0=Shakuson5 theme song
TTITLE1=Past regret
TTITLE2=Howl machine
TTITLE3=May Rain
TTITLE4=Moist, moist sea
EXTD=YEAR: 2004
EXTT0=
EXTT1=
EXTT2=
EXTT3=
EXTT4=
PLAYORDER=
